<svg xmlns="http://www.w3.org/2000/svg" xmlns:xlink="http://www.w3.org/1999/xlink" width="500" zoomAndPan="magnify" viewBox="0 0 375 374.999991" height="500" preserveAspectRatio="xMidYMid meet" version="1.0"><defs><clipPath id="8dd9b6de6b"><path d="M 58.714844 127.414062 L 316.636719 127.414062 L 316.636719 375 L 58.714844 375 Z M 58.714844 127.414062 " clip-rule="nonzero"/></clipPath><clipPath id="c2d8cf041c"><path d="M 125.601562 127.929688 L 125.601562 375 C 126.328125 375.050781 127.050781 375.050781 127.777344 375.050781 L 246.808594 375.050781 L 246.808594 127.929688 Z M 265.433594 127.929688 L 246.808594 127.929688 L 246.808594 375 L 247.222656 375 C 277.332031 375 303.765625 350.425781 305.9375 320.421875 L 316.128906 182.457031 C 318.355469 152.503906 295.542969 127.929688 265.433594 127.929688 Z M 109.566406 127.929688 C 79.457031 127.929688 56.644531 152.503906 58.871094 182.507812 L 69.0625 320.476562 C 71.234375 349.753906 96.480469 373.863281 125.65625 375 L 125.65625 127.929688 Z M 109.566406 127.929688 " clip-rule="nonzero"/></clipPath><clipPath id="57baa46431"><path d="M 68.128906 136.480469 L 307 136.480469 L 307 366 L 68.128906 366 Z M 68.128906 136.480469 " clip-rule="nonzero"/></clipPath><clipPath id="d27b79e3c2"><path d="M 130.128906 136.960938 L 130.128906 365.972656 C 130.796875 366.019531 131.46875 366.019531 132.140625 366.019531 L 242.476562 366.019531 L 242.476562 136.960938 Z M 259.738281 136.960938 L 242.476562 136.960938 L 242.476562 365.972656 L 242.859375 365.972656 C 270.765625 365.972656 295.269531 343.195312 297.28125 315.382812 L 306.730469 187.5 C 308.789062 159.734375 287.644531 136.960938 259.738281 136.960938 Z M 115.261719 136.960938 C 87.355469 136.960938 66.210938 159.734375 68.269531 187.546875 L 77.71875 315.429688 C 79.730469 342.570312 103.132812 364.917969 130.175781 365.972656 L 130.175781 136.960938 Z M 115.261719 136.960938 " clip-rule="nonzero"/></clipPath><clipPath id="2b2729a119"><path d="M 73.875 142.015625 L 301 142.015625 L 301 360.914062 L 73.875 360.914062 Z M 73.875 142.015625 " clip-rule="nonzero"/></clipPath><clipPath id="ae25a0e988"><path d="M 132.890625 142.472656 L 132.890625 360.457031 C 133.527344 360.503906 134.167969 360.503906 134.804688 360.503906 L 239.828125 360.503906 L 239.828125 142.472656 Z M 256.257812 142.472656 L 239.828125 142.472656 L 239.828125 360.457031 L 240.195312 360.457031 C 266.757812 360.457031 290.082031 338.777344 291.996094 312.304688 L 300.988281 190.578125 C 302.953125 164.152344 282.824219 142.472656 256.257812 142.472656 Z M 118.742188 142.472656 C 92.175781 142.472656 72.046875 164.152344 74.011719 190.625 L 83.003906 312.351562 C 84.917969 338.183594 107.191406 359.453125 132.933594 360.457031 L 132.933594 142.472656 Z M 118.742188 142.472656 " clip-rule="nonzero"/></clipPath><clipPath id="3c2aa25016"><path d="M 117.628906 234.503906 L 155.246094 234.503906 L 155.246094 261.375 L 117.628906 261.375 Z M 117.628906 234.503906 " clip-rule="nonzero"/></clipPath><clipPath id="caac24c1a2"><path d="M 117.878906 259.085938 C 117.710938 257.929688 117.628906 256.777344 117.628906 255.621094 C 117.628906 244.035156 125.960938 234.503906 136.4375 234.503906 C 146.914062 234.503906 155.246094 244.035156 155.246094 255.621094 C 155.246094 256.777344 155.164062 257.929688 154.996094 259.085938 C 154.554688 262.148438 150.125 262.148438 149.683594 259.085938 C 148.570312 251.527344 142.925781 246.027344 136.4375 246.027344 C 129.949219 246.027344 124.304688 251.527344 123.191406 259.085938 C 122.75 262.148438 118.320312 262.148438 117.878906 259.085938 Z M 117.878906 259.085938 " clip-rule="nonzero"/></clipPath><clipPath id="e92d16cd43"><path d="M 219.734375 234.503906 L 257.355469 234.503906 L 257.355469 261.375 L 219.734375 261.375 Z M 219.734375 234.503906 " clip-rule="nonzero"/></clipPath><clipPath id="f8f7ee0f88"><path d="M 219.988281 259.085938 C 219.820312 257.929688 219.734375 256.777344 219.734375 255.621094 C 219.734375 244.035156 228.070312 234.503906 238.542969 234.503906 C 249.019531 234.503906 257.355469 244.035156 257.355469 255.621094 C 257.355469 256.777344 257.269531 257.929688 257.101562 259.085938 C 256.660156 262.148438 252.230469 262.148438 251.792969 259.085938 C 250.679688 251.527344 245.03125 246.027344 238.542969 246.027344 C 232.058594 246.027344 226.410156 251.527344 225.296875 259.085938 C 224.859375 262.148438 220.429688 262.148438 219.988281 259.085938 Z M 219.988281 259.085938 " clip-rule="nonzero"/></clipPath><clipPath id="5dd029a582"><path d="M 133 267 L 243 267 L 243 330.730469 L 133 330.730469 Z M 133 267 " clip-rule="nonzero"/></clipPath><clipPath id="8bbab82a61"><path d="M 202.710938 313.332031 C 205.417969 306.402344 206.277344 297.667969 205.207031 287.070312 C 205.039062 285.472656 205.105469 283.878906 205.375 282.324219 C 207.015625 272.648438 216.1875 266.140625 225.84375 267.796875 C 227.230469 268.027344 228.59375 268.40625 229.894531 268.929688 C 238.1875 272.207031 243.269531 280.539062 242.511719 289.316406 L 242.449219 289.714844 C 242.28125 290.40625 242.09375 291.097656 241.863281 291.769531 C 241.839844 291.960938 241.796875 292.148438 241.734375 292.335938 C 234.851562 315.21875 212.808594 331.238281 187.492188 331.238281 C 162.175781 331.238281 140.132812 315.21875 133.246094 292.335938 C 132.34375 289.355469 136.394531 287.488281 138.074219 290.113281 C 147.941406 305.394531 166.6875 315.113281 187.492188 315.113281 C 192.71875 315.113281 197.839844 314.503906 202.710938 313.332031 Z M 227.921875 273.90625 C 226.957031 273.527344 225.96875 273.253906 224.941406 273.085938 C 218.203125 271.933594 211.820312 276.46875 210.667969 283.207031 C 210.476562 284.320312 210.4375 285.429688 210.5625 286.523438 C 212.136719 302.308594 209.722656 314.695312 203.195312 323.53125 C 220.007812 318.390625 233.066406 305.164062 237.179688 288.644531 C 237.640625 282.304688 233.925781 276.300781 227.921875 273.90625 Z M 227.921875 273.90625 " clip-rule="nonzero"/></clipPath><clipPath id="d027ee35d9"><path d="M 109 2 L 260 2 L 260 118 L 109 118 Z M 109 2 " clip-rule="nonzero"/></clipPath><clipPath id="6103ce296a"><path d="M 154.230469 -33.371094 L 288.996094 43.121094 L 220.523438 163.761719 L 85.757812 87.265625 Z M 154.230469 -33.371094 " clip-rule="nonzero"/></clipPath><clipPath id="0503f03a52"><path d="M 154.230469 -33.371094 L 288.996094 43.121094 L 220.523438 163.761719 L 85.757812 87.265625 Z M 154.230469 -33.371094 " clip-rule="nonzero"/></clipPath></defs><g clip-path="url(#8dd9b6de6b)"><g clip-path="url(#c2d8cf041c)"><path fill="#fffaeb" d="M 58.714844 127.929688 L 316.121094 127.929688 L 316.121094 375 L 58.714844 375 Z M 58.714844 127.929688 " fill-opacity="1" fill-rule="nonzero"/></g></g><g clip-path="url(#57baa46431)"><g clip-path="url(#d27b79e3c2)"><path fill="#5d59d9" d="M 68.128906 136.960938 L 306.722656 136.960938 L 306.722656 365.972656 L 68.128906 365.972656 Z M 68.128906 136.960938 " fill-opacity="1" fill-rule="nonzero"/></g></g><g clip-path="url(#2b2729a119)"><g clip-path="url(#ae25a0e988)"><path fill="#fffaeb" d="M 73.875 142.472656 L 300.980469 142.472656 L 300.980469 360.457031 L 73.875 360.457031 Z M 73.875 142.472656 " fill-opacity="1" fill-rule="nonzero"/></g></g><g clip-path="url(#3c2aa25016)"><g clip-path="url(#caac24c1a2)"><path fill="#5d59d9" d="M 90.757812 288.242188 L 182.117188 288.242188 L 182.117188 207.632812 L 90.757812 207.632812 Z M 90.757812 288.242188 " fill-opacity="1" fill-rule="nonzero"/></g></g><g clip-path="url(#e92d16cd43)"><g clip-path="url(#f8f7ee0f88)"><path fill="#5d59d9" d="M 192.863281 288.242188 L 284.222656 288.242188 L 284.222656 207.632812 L 192.863281 207.632812 Z M 192.863281 288.242188 " fill-opacity="1" fill-rule="nonzero"/></g></g><g clip-path="url(#5dd029a582)"><g clip-path="url(#8bbab82a61)"><path fill="#5d59d9" d="M 106.25 358.105469 L 269.46875 358.105469 L 269.46875 240.652344 L 106.25 240.652344 Z M 106.25 358.105469 " fill-opacity="1" fill-rule="nonzero"/></g></g><g clip-path="url(#d027ee35d9)"><g clip-path="url(#6103ce296a)"><g clip-path="url(#0503f03a52)"><path fill="#fffaeb" d="M 121.164062 75.09375 L 125.929688 110.070312 C 125.929688 110.070312 164.160156 82.234375 211.992188 92.34375 C 211.992188 92.34375 171.621094 79.117188 133.042969 95.144531 L 131 80.414062 L 130.207031 75.101562 L 135.722656 72.160156 C 128.90625 67.765625 121.6875 64.007812 120.546875 53.597656 C 119.40625 43.183594 137.914062 27.1875 155.75 30.828125 C 156.535156 30.972656 157.316406 31.1875 158.070312 31.390625 C 153.519531 37.550781 147.703125 45.671875 146.859375 46.363281 C 163.535156 33.320312 228.980469 -11.976562 223.933594 44.269531 C 223.933594 44.269531 225.226562 42.855469 226.949219 40.550781 C 254.3125 38.96875 250.886719 57.15625 243.632812 70.53125 C 209.960938 46.96875 164.332031 68.910156 157.886719 72.226562 L 157.84375 72.238281 L 157.691406 72.304688 C 157.316406 72.503906 157.105469 72.609375 157.105469 72.609375 L 160.40625 71.773438 C 196.257812 62.941406 221.757812 72.210938 232.121094 77.265625 L 234.523438 100.796875 C 234.523438 100.796875 178.496094 84.339844 136.269531 115.5625 C 136.269531 115.5625 192.53125 94.414062 246.300781 117.507812 L 245.300781 81.808594 C 274.523438 50.25 253.585938 29.886719 235.457031 28.679688 C 234.667969 28.609375 234.03125 28.472656 233.539062 28.34375 C 235.949219 21.042969 235.5 12.796875 225.765625 7.234375 C 224.167969 6.328125 222.347656 5.484375 220.214844 4.722656 C 194.472656 -4.382812 174.089844 14.394531 163.367188 24.519531 C 163.289062 24.585938 163.179688 24.714844 163.070312 24.839844 C 161.90625 24.367188 160.96875 24.023438 160.480469 23.824219 C 157.878906 22.761719 155.175781 21.945312 152.34375 21.355469 C 130.757812 16.941406 112.355469 34.355469 109.78125 48.917969 C 107.507812 61.6875 113.15625 67.949219 121.121094 75.03125 Z M 121.164062 75.09375 " fill-opacity="1" fill-rule="evenodd"/></g></g></g></svg>